<svg xmlns="http://www.w3.org/2000/svg" viewBox="0 0 800 500">
  <defs>
    <linearGradient id="dbg" x1="0%" y1="0%" x2="100%" y2="100%">
      <stop offset="0%" style="stop-color:#0f172a"/>
      <stop offset="100%" style="stop-color:#1e293b"/>
    </linearGradient>
    <linearGradient id="daccent" x1="0%" y1="0%" x2="100%" y2="0%">
      <stop offset="0%" style="stop-color:#00f5ff"/>
      <stop offset="100%" style="stop-color:#7b2fff"/>
    </linearGradient>
  </defs>

  <rect width="800" height="500" fill="url(#dbg)"/>

  <!-- Sidebar -->
  <rect x="0" y="0" width="70" height="500" fill="#0a0f1a"/>
  <circle cx="35" cy="35" r="18" fill="url(#daccent)"/>
  <rect x="20" y="75" width="30" height="30" rx="6" fill="#1e3a5f"/>
  <rect x="20" y="120" width="30" height="30" rx="6" fill="url(#daccent)"/>
  <rect x="20" y="165" width="30" height="30" rx="6" fill="#1e3a5f"/>
  <rect x="20" y="210" width="30" height="30" rx="6" fill="#1e3a5f"/>
  <rect x="20" y="255" width="30" height="30" rx="6" fill="#1e3a5f"/>

  <!-- Header -->
  <rect x="70" y="0" width="730" height="55" fill="#131c2e"/>
  <rect x="95" y="18" width="150" height="18" rx="5" fill="#334155"/>
  <circle cx="740" cy="28" r="16" fill="#334155"/>
  <rect x="620" y="18" width="80" height="18" rx="5" fill="#1e293b"/>

  <!-- Stats Cards -->
  <rect x="95" y="75" width="160" height="90" rx="12" fill="#1e293b"/>
  <rect x="110" y="95" width="60" height="10" rx="3" fill="#64748b"/>
  <rect x="110" y="115" width="100" height="25" rx="5" fill="url(#daccent)"/>
  <rect x="110" y="150" width="40" height="8" rx="3" fill="#22c55e"/>

  <rect x="275" y="75" width="160" height="90" rx="12" fill="#1e293b"/>
  <rect x="290" y="95" width="60" height="10" rx="3" fill="#64748b"/>
  <rect x="290" y="115" width="80" height="25" rx="5" fill="#7b2fff"/>
  <rect x="290" y="150" width="50" height="8" rx="3" fill="#22c55e"/>

  <rect x="455" y="75" width="160" height="90" rx="12" fill="#1e293b"/>
  <rect x="470" y="95" width="60" height="10" rx="3" fill="#64748b"/>
  <rect x="470" y="115" width="90" height="25" rx="5" fill="#f59e0b"/>
  <rect x="470" y="150" width="35" height="8" rx="3" fill="#ef4444"/>

  <rect x="635" y="75" width="140" height="90" rx="12" fill="#1e293b"/>
  <rect x="650" y="95" width="60" height="10" rx="3" fill="#64748b"/>
  <rect x="650" y="115" width="70" height="25" rx="5" fill="#ec4899"/>
  <rect x="650" y="150" width="45" height="8" rx="3" fill="#22c55e"/>

  <!-- Chart Area -->
  <rect x="95" y="185" width="450" height="200" rx="12" fill="#1e293b"/>
  <rect x="115" y="205" width="100" height="14" rx="4" fill="#fff"/>

  <!-- Chart Lines -->
  <line x1="130" y1="250" x2="130" y2="360" stroke="#334155" stroke-width="1"/>
  <line x1="130" y1="360" x2="520" y2="360" stroke="#334155" stroke-width="1"/>

  <!-- Chart Bars -->
  <rect x="160" y="310" width="30" height="50" rx="4" fill="url(#daccent)"/>
  <rect x="210" y="280" width="30" height="80" rx="4" fill="url(#daccent)"/>
  <rect x="260" y="260" width="30" height="100" rx="4" fill="url(#daccent)"/>
  <rect x="310" y="290" width="30" height="70" rx="4" fill="url(#daccent)"/>
  <rect x="360" y="240" width="30" height="120" rx="4" fill="#7b2fff"/>
  <rect x="410" y="270" width="30" height="90" rx="4" fill="url(#daccent)"/>
  <rect x="460" y="300" width="30" height="60" rx="4" fill="url(#daccent)"/>

  <!-- Side Panel -->
  <rect x="565" y="185" width="210" height="200" rx="12" fill="#1e293b"/>
  <rect x="585" y="205" width="80" height="14" rx="4" fill="#fff"/>

  <!-- Donut Chart Placeholder -->
  <circle cx="670" cy="300" r="50" fill="none" stroke="#334155" stroke-width="15"/>
  <circle cx="670" cy="300" r="50" fill="none" stroke="url(#daccent)" stroke-width="15" stroke-dasharray="200 314" transform="rotate(-90 670 300)"/>
  <circle cx="670" cy="300" r="50" fill="none" stroke="#7b2fff" stroke-width="15" stroke-dasharray="80 314" stroke-dashoffset="-200" transform="rotate(-90 670 300)"/>

  <!-- Table -->
  <rect x="95" y="405" width="680" height="80" rx="12" fill="#1e293b"/>
  <rect x="115" y="420" width="80" height="10" rx="3" fill="#64748b"/>
  <rect x="215" y="420" width="80" height="10" rx="3" fill="#64748b"/>
  <rect x="315" y="420" width="80" height="10" rx="3" fill="#64748b"/>
  <rect x="415" y="420" width="80" height="10" rx="3" fill="#64748b"/>
  <line x1="115" y1="440" x2="755" y2="440" stroke="#334155" stroke-width="1"/>

  <rect x="115" y="455" width="100" height="8" rx="3" fill="#475569"/>
  <rect x="215" y="455" width="60" height="8" rx="3" fill="#475569"/>
  <rect x="315" y="455" width="80" height="8" rx="3" fill="url(#daccent)"/>
  <rect x="415" y="455" width="50" height="15" rx="4" fill="#22c55e"/>

  <rect x="115" y="475" width="90" height="8" rx="3" fill="#475569"/>
  <rect x="215" y="475" width="70" height="8" rx="3" fill="#475569"/>
  <rect x="315" y="475" width="60" height="8" rx="3" fill="#7b2fff"/>
  <rect x="415" y="475" width="50" height="15" rx="4" fill="#f59e0b"/>
</svg>
